# xmcd CD database file
#
# Track frame offsets:
#	182
#	15232
#	33340
#	45360
#	65115
#	77027
#	87995
#	102532
#	115657
#	130670
#	145290
#	157767
#	169890
#	183220
#	197537
#	211857
#	226650
#	240902
#
# Disc length: 3381 seconds
#
# Revision: 2
# Processed by: cddbd v1.5.2PL0 Copyright (c) Steve Scherf et al.
# Submitted via: CDex 1.70beta2
#
DISCID=d60d3312
DTITLE=Various Artist - Selection of Boogie Woogie CD2
DYEAR=1995
DGENRE=Blues
TTITLE0=Lionel Hampton - Hamp's Boogie Woogie No 1
TTITLE1=Albert Ammins Rhythm Kings - Jammin' The Boogie
TTITLE2=Jay McShann Trio - Vine Street Boogie
TTITLE3=Edmond Hall Sextet with Eddie Heywood - Downtown Cafe Boogie
TTITLE4=Woodie Herrman and His Four Chips - Chip's Boogie Woogie
TTITLE5=Count Basie - Basie Boogie
TTITLE6=Bob Crosby - Honky Tonk Train Blues
TTITLE7=Bob Zurke - Cow Cow Blues
TTITLE8=Benny Goodman - Roll' Em
TTITLE9=Slim Gaillard and his Orchestra - Dizzy's Boogie
TTITLE10=Milton Buckner Trio - Buck's Boogie Woogie
TTITLE11=Jay McShann Trio - Hold' Em, Hootie
TTITLE12=Jimmy Rushing with Count Basie and hie Orchestra - Boogie Woogie (I May Be Wrong)
TTITLE13=Tommy Dorsay - Boogie Woogie
TTITLE14=Nat King Cole and Lionel Hampton - Central Avenue Breakdown
TTITLE15=Lionel Hampton - Two Finger Boogie
TTITLE16=Irene Daye with Gene Krupa and his Orchestra - Drum Boogie
TTITLE17=The Andrew Sisters, Beat Me Daddy - Eight To The Bar
EXTD=YEAR: 1995
EXTT0=
EXTT1=
EXTT2=
EXTT3=
EXTT4=
EXTT5=
EXTT6=
EXTT7=
EXTT8=
EXTT9=
EXTT10=
EXTT11=
EXTT12=
EXTT13=
EXTT14=
EXTT15=
EXTT16=
EXTT17=
PLAYORDER=
